<svg fill="#000000" viewBox="0 0 24 24" id="laptop" data-name="Flat Line" xmlns="http://www.w3.org/2000/svg" class="icon flat-line"><g id="SVGRepo_bgCarrier" stroke-width="0"></g><g id="SVGRepo_tracerCarrier" stroke-linecap="round" stroke-linejoin="round"></g><g id="SVGRepo_iconCarrier"><path id="secondary" d="M5,4H19a1,1,0,0,1,1,1V16a0,0,0,0,1,0,0H4a0,0,0,0,1,0,0V5A1,1,0,0,1,5,4Z" style="fill: #da589c; stroke-width: 2;"></path><path id="primary" d="M20,16H4V5A1,1,0,0,1,5,4H19a1,1,0,0,1,1,1Zm1,0H3v3a1,1,0,0,0,1,1H20a1,1,0,0,0,1-1Z" style="fill: none; stroke: #000000; stroke-linecap: round; stroke-linejoin: round; stroke-width: 2;"></path></g></svg>